<?xml version="1.0" standalone="no"?>
<!DOCTYPE svg PUBLIC "-//W3C//DTD SVG 20010904//EN"
 "http://www.w3.org/TR/2001/REC-SVG-20010904/DTD/svg10.dtd">
<svg version="1.0" xmlns="http://www.w3.org/2000/svg"
 width="500.000000pt" height="500.000000pt" viewBox="0 0 500.000000 500.000000"
 preserveAspectRatio="xMidYMid meet">
<metadata>
Created by potrace 1.16, written by Peter Selinger 2001-2019
</metadata>
<g transform="translate(0.000000,500.000000) scale(0.100000,-0.100000)"
fill="#000000" stroke="none">
<path d="M2478 4318 c-29 -40 -73 -100 -98 -134 -60 -83 -209 -278 -304 -398
l-77 -96 -55 0 c-65 0 -102 -11 -599 -174 -338 -110 -374 -124 -412 -159 -55
-51 -84 -114 -84 -186 0 -45 23 -123 122 -416 67 -198 122 -371 121 -385 0
-14 -16 -70 -36 -125 -66 -189 -68 -361 -5 -549 77 -231 258 -423 476 -507
204 -79 452 -58 624 53 88 57 182 156 219 231 32 65 34 67 70 67 20 0 39 -3
43 -6 8 -8 -22 -84 -83 -209 -50 -104 -184 -303 -277 -413 -29 -35 -53 -67
-53 -72 0 -5 34 -35 76 -67 42 -32 122 -94 178 -138 56 -44 128 -99 159 -123
l58 -43 145 113 c80 62 157 122 172 133 15 11 57 43 94 72 l68 51 -71 84
c-146 173 -334 490 -341 577 -3 32 -1 34 33 37 35 4 37 3 62 -48 33 -66 124
-175 181 -216 56 -40 169 -97 226 -113 69 -20 291 -17 370 5 249 68 461 273
552 536 32 93 32 98 32 270 l0 175 -39 114 -40 114 127 384 c71 211 128 394
128 407 0 60 -32 129 -83 180 -43 43 -65 56 -127 75 -41 13 -210 68 -375 121
-428 139 -463 149 -529 152 l-60 3 -55 77 c-31 42 -87 117 -126 166 -72 94
-253 335 -306 410 -17 23 -34 42 -39 42 -5 0 -32 -32 -62 -72z m76 -250 c9
-58 43 -126 69 -140 12 -6 45 -17 72 -23 l50 -12 -45 -12 c-83 -22 -99 -32
-119 -75 -11 -22 -23 -58 -26 -78 -9 -49 -19 -42 -34 25 -15 68 -47 100 -126
123 l-60 18 38 8 c20 4 55 17 76 27 41 22 65 65 77 141 8 52 20 51 28 -2z
m466 -503 c16 -8 42 -32 57 -52 l28 -36 3 -844 c2 -825 2 -844 -18 -882 -11
-22 -34 -50 -52 -63 l-33 -23 -482 0 c-473 0 -482 0 -510 21 -15 11 -38 36
-50 54 l-23 33 0 844 c0 818 1 845 20 882 10 21 34 48 52 60 32 20 42 21 506
21 401 0 477 -2 502 -15z m-1183 -56 c-21 -42 -22 -56 -25 -381 -1 -186 -5
-338 -8 -338 -3 0 -38 21 -77 47 -40 27 -75 49 -79 51 -3 2 -27 -51 -53 -117
-26 -66 -75 -167 -110 -225 l-63 -105 22 -19 c44 -39 183 -125 272 -168 l93
-44 3 -228 3 -227 30 -54 c16 -29 44 -65 63 -81 l33 -27 -63 -18 c-35 -9 -103
-30 -151 -46 -49 -16 -102 -29 -119 -29 -40 0 -93 26 -112 55 -9 13 -43 109
-77 212 -33 103 -110 341 -170 528 -61 187 -150 455 -200 595 -49 141 -89 269
-89 285 0 32 25 77 56 100 10 8 118 46 239 85 121 39 306 99 410 134 105 34
191 62 192 61 1 -1 -8 -21 -20 -46z m1553 -11 c96 -31 283 -91 415 -133 218
-69 243 -79 271 -111 57 -63 57 -62 -84 -490 -164 -494 -345 -1051 -368 -1129
-22 -73 -65 -120 -118 -131 -37 -6 -129 17 -328 84 l-47 16 25 29 c14 16 35
48 47 71 21 39 22 56 25 289 2 136 7 247 11 247 5 0 28 -7 51 -15 24 -8 44
-14 46 -12 2 1 -10 29 -26 61 -25 49 -30 70 -29 130 l0 71 13 -48 c33 -120
128 -174 229 -129 58 26 98 84 105 150 5 53 -1 68 -101 289 -31 67 -61 140
-68 162 -7 23 -14 41 -16 41 -2 0 -27 -18 -56 -39 -29 -22 -74 -51 -102 -66
l-50 -26 -5 338 c-4 296 -7 342 -22 372 -10 19 -18 36 -18 38 0 6 2 5 200 -59z
m-1298 -2017 c-30 -27 -84 -64 -120 -82 -64 -32 -74 -34 -194 -37 -73 -2 -128
0 -128 5 0 5 30 17 68 27 37 10 141 44 232 76 91 32 172 58 180 59 8 0 -9 -22
-38 -48z m1111 -32 c125 -41 227 -77 227 -81 0 -5 -49 -8 -110 -8 -89 0 -121
4 -173 23 -67 24 -143 74 -187 123 -31 34 -47 38 243 -57z m-648 -346 c14 -99
54 -148 127 -159 43 -7 62 -24 26 -24 -13 0 -42 -9 -66 -20 -46 -21 -73 -65
-87 -142 -9 -50 -21 -48 -29 4 -15 91 -57 137 -142 156 -32 8 -35 11 -19 16
122 43 139 60 157 154 6 34 15 62 19 62 4 0 10 -21 14 -47z"/>
<path d="M2095 3488 c-46 -127 -95 -271 -95 -279 0 -5 16 -9 35 -9 24 0 35 5
35 14 0 26 30 46 70 46 33 0 39 -4 49 -30 8 -24 16 -30 40 -30 17 0 31 5 31
11 0 6 -21 74 -47 150 l-47 139 -33 0 c-19 0 -36 -6 -38 -12z"/>
<path d="M2083 3117 c-65 -69 -76 -89 -63 -122 12 -32 35 -41 71 -28 34 13 34
12 14 -27 l-16 -30 41 0 41 0 -16 30 c-18 35 -19 48 -3 32 30 -30 88 1 88 45
0 12 -24 51 -54 87 l-54 66 -49 -53z"/>
<path d="M2488 2887 c-26 -34 -96 -115 -156 -180 -120 -128 -139 -166 -123
-240 16 -67 54 -108 120 -127 61 -17 149 29 177 95 20 46 18 0 -3 -61 -11 -32
-33 -65 -65 -96 l-49 -48 147 0 148 0 -41 35 c-43 37 -77 96 -88 155 l-6 35
19 -30 c60 -92 158 -115 235 -55 58 46 75 155 36 220 -12 19 -70 87 -129 150
-58 63 -122 136 -140 163 -18 26 -34 47 -34 47 -1 -1 -22 -29 -48 -63z"/>
<path d="M2938 2266 c-16 -9 -30 -11 -33 -5 -10 15 -62 10 -79 -7 -30 -29 -19
-69 35 -134 l51 -62 45 44 c47 45 73 86 73 113 0 16 -43 65 -57 65 -4 0 -20
-7 -35 -14z"/>
<path d="M2841 1984 c-28 -35 -26 -51 4 -56 16 -4 29 1 37 13 7 10 26 21 42
25 27 6 27 5 16 -15 -6 -12 -18 -25 -26 -28 -8 -3 -14 -18 -14 -33 0 -22 5
-29 23 -32 16 -2 22 -10 22 -28 0 -33 -33 -39 -55 -10 -27 36 -88 11 -62 -26
31 -45 98 -56 150 -24 26 16 32 26 32 53 0 21 -8 41 -20 52 -20 18 -20 18 -1
49 11 17 24 44 30 59 l11 27 -85 0 c-78 0 -85 -2 -104 -26z"/>
<path d="M1148 3236 l-28 -10 0 -163 0 -164 30 16 c24 13 30 22 30 49 0 31 4
35 45 49 44 15 45 15 64 -9 21 -27 39 -30 64 -11 15 11 7 25 -79 132 -53 66
-97 120 -98 121 0 0 -13 -4 -28 -10z"/>
<path d="M1229 2845 l-26 -84 21 -19 c57 -51 126 -93 130 -80 3 7 12 40 21 73
9 33 18 67 21 76 3 10 -19 33 -64 67 -38 29 -71 52 -73 52 -2 0 -16 -38 -30
-85z"/>
<path d="M3566 2165 c-17 -13 -18 -18 -7 -41 15 -34 5 -45 -15 -16 -30 44 -94
15 -94 -42 0 -26 58 -146 71 -146 3 0 33 16 67 36 73 44 94 80 67 120 -14 21
-23 25 -48 21 l-31 -4 24 19 c20 16 21 22 12 43 -13 29 -20 30 -46 10z"/>
<path d="M3380 1883 c0 -10 9 -38 20 -62 l20 -43 -25 -20 c-31 -24 -31 -29 -3
-47 19 -12 24 -11 39 8 9 11 22 21 28 21 20 0 11 -26 -18 -54 -25 -24 -31 -26
-50 -14 -18 11 -23 10 -38 -4 -16 -17 -16 -19 7 -43 13 -14 34 -25 47 -25 32
0 97 61 156 149 47 70 49 75 31 88 -26 19 -30 17 -54 -22 -13 -20 -30 -35 -41
-35 -24 0 -59 55 -59 93 0 23 -4 27 -30 27 -22 0 -30 -5 -30 -17z"/>
<path d="M1957 4343 c-13 -13 -6 -49 34 -178 52 -164 63 -185 94 -185 48 0 47
26 -5 183 -27 81 -54 156 -60 167 -10 19 -49 27 -63 13z"/>
<path d="M3063 4338 c-18 -24 -105 -305 -101 -329 2 -17 10 -25 29 -27 30 -4
32 0 106 211 35 102 42 131 32 143 -14 17 -53 18 -66 2z"/>
<path d="M1522 4088 c-23 -23 -12 -51 49 -119 48 -54 67 -69 89 -69 27 0 40
15 40 47 0 21 -129 153 -150 153 -9 0 -21 -5 -28 -12z"/>
<path d="M3449 4038 c-59 -63 -76 -95 -65 -123 13 -34 53 -16 120 55 68 73 80
102 47 120 -32 17 -39 13 -102 -52z"/>
<path d="M1795 4034 c-21 -21 -15 -48 33 -139 33 -63 40 -70 67 -70 25 0 31 4
33 27 4 32 -70 183 -93 192 -22 8 -21 8 -40 -10z"/>
<path d="M3189 3955 c-47 -100 -48 -130 -4 -130 27 0 32 7 68 79 45 93 46 129
4 134 -26 3 -30 -2 -68 -83z"/>
<path d="M1420 3916 c-21 -26 -7 -49 77 -129 65 -63 86 -78 102 -72 12 3 24
18 27 32 6 21 -4 36 -72 104 -79 80 -109 94 -134 65z"/>
<path d="M3523 3852 c-46 -42 -83 -85 -83 -93 0 -19 31 -49 49 -49 8 0 49 35
93 77 68 67 79 81 76 108 -2 24 -8 31 -28 33 -19 2 -44 -16 -107 -76z"/>
<path d="M798 2419 c-21 -12 -23 -40 -6 -57 7 -7 44 -12 98 -12 54 0 91 5 98
12 18 18 14 46 -7 58 -25 13 -161 13 -183 -1z"/>
<path d="M4096 2417 c-11 -8 -17 -22 -14 -38 3 -24 5 -24 97 -24 78 0 96 3
105 18 8 12 8 22 0 35 -15 23 -159 30 -188 9z"/>
</g>
</svg>
